<svg xmlns="http://www.w3.org/2000/svg" xmlns:xlink="http://www.w3.org/1999/xlink" version="1.1" x="0px" y="0px" viewBox="0 0 100 125" enable-background="new 0 0 100 100" xml:space="preserve"><g><g><polygon points="76.301,89.357 74.301,89.357 74.301,11.643 25.699,11.643 25.699,89.357 23.699,89.357 23.699,9.643     76.301,9.643   "/></g><g><rect x="10.643" y="88.357" width="78.715" height="2"/></g><g><path d="M65.958,51c-2.412,0-4.375-1.962-4.375-4.375s1.963-4.375,4.375-4.375s4.375,1.962,4.375,4.375S68.37,51,65.958,51z     M65.958,44.25c-1.31,0-2.375,1.065-2.375,2.375S64.648,49,65.958,49s2.375-1.065,2.375-2.375S67.268,44.25,65.958,44.25z"/></g></g></svg>