<svg xmlns="http://www.w3.org/2000/svg" xmlns:xlink="http://www.w3.org/1999/xlink" version="1.1" x="0px" y="0px" viewBox="0 0 100 125" style="enable-background:new 0 0 100 100;" xml:space="preserve"><path d="M50.3,47.1c-8,0-14.6-6.5-14.6-14.6s6.5-14.6,14.6-14.6s14.6,6.5,14.6,14.6S58.4,47.1,50.3,47.1z M50.3,21.9  c-5.8,0-10.6,4.8-10.6,10.6s4.8,10.6,10.6,10.6s10.6-4.8,10.6-10.6S56.2,21.9,50.3,21.9z"/><path d="M50.3,80.5c-11.4,0-22-1.5-22.4-1.6l-1.7-0.3V62.1c0-6.7,6.1-12.6,15.5-14.9l0.8-0.2l0.7,0.4c4.4,2.4,10,2.4,14.3,0l0.7-0.4  l0.8,0.2c9.4,2.4,15.5,8.2,15.5,14.9v16.5l-1.7,0.3C72.3,78.9,61.7,80.5,50.3,80.5z M30.2,75.1c3.4,0.4,11.6,1.3,20.1,1.3  s16.7-0.9,20.1-1.3v-13c0-4.6-4.7-8.9-11.8-10.9c-5.2,2.6-11.5,2.6-16.7,0c-7.1,2-11.8,6.3-11.8,10.9L30.2,75.1L30.2,75.1z"/><path d="M73.8,18.8c-3.4,0-6.5,1.4-8.7,3.6c0.7,1,1.3,2,1.7,3.1c1.7-2,4.2-3.3,7-3.3c5,0,9.1,4.1,9.1,9.1s-4.1,9.1-9.1,9.1  c-2.5,0-4.7-1-6.4-2.6C67,39,66.6,40.1,66,41.1c2.1,1.7,4.8,2.7,7.8,2.7c6.9,0,12.5-5.6,12.5-12.5S80.7,18.8,73.8,18.8z"/><path d="M81.2,43.8l-0.7-0.2L79.9,44c-3.7,2.1-8.5,2.1-12.3,0L67,43.7l-0.7,0.2c-1.1,0.3-2.2,0.6-3.2,1c0.1,0,0,0.1-0.1,0.1  c2.5,0.9,4.8,2.1,6.8,3.4c3.7,0.9,7.7,0.5,11.1-1.2C87,49,91,52.7,91,56.6v11.2c-2.4,0.3-7.5,0.9-13.3,1.1v3.4  C85.9,72,92.7,71,93,71l1.5-0.2V56.6C94.4,50.9,89.2,45.9,81.2,43.8z"/><path d="M26.9,18.8c3.4,0,6.5,1.4,8.7,3.6c-0.7,1-1.3,2-1.7,3.1c-1.7-2-4.2-3.3-7-3.3c-5,0-9.1,4.1-9.1,9.1s4.1,9.1,9.1,9.1  c2.5,0,4.7-1,6.4-2.6c0.4,1.2,0.8,2.3,1.4,3.3c-2.1,1.7-4.8,2.7-7.8,2.7c-6.9,0-12.5-5.6-12.5-12.5S20,18.8,26.9,18.8z"/><path d="M19.5,43.8l0.7-0.2l0.6,0.3c3.7,2.1,8.5,2.1,12.3,0l0.6-0.3l0.7,0.2c1.1,0.3,2.2,0.6,3.2,1c0.1,0.1,0.1,0.1,0.2,0.2  c-2.5,0.9-4.8,2.1-6.8,3.4c-3.7,0.9-7.7,0.5-11.1-1.2C13.6,49,9.6,52.7,9.6,56.6v11.2c2.4,0.3,7.5,0.9,13.3,1.1v3.4  C14.8,72,8,71,7.7,71l-1.5-0.2V56.6C6.2,50.9,11.4,45.9,19.5,43.8z"/></svg>