<svg xmlns="http://www.w3.org/2000/svg" xmlns:xlink="http://www.w3.org/1999/xlink" version="1.1" x="0px" y="0px" viewBox="0 0 48 60" style="enable-background:new 0 0 48 48;" xml:space="preserve"><path d="M44.42,19.74c-0.03-0.04-0.05-0.08-0.09-0.11c-0.01-0.01-0.01-0.01-0.02-0.02l-3.81-3.05V8c0-0.83-0.67-1.5-1.5-1.5H27.93  l-3.61-2.89c-0.18-0.15-0.44-0.15-0.63,0L20.07,6.5H9C8.17,6.5,7.5,7.17,7.5,8v8.56l-3.81,3.05c-0.01,0.01-0.01,0.01-0.02,0.02  c-0.04,0.03-0.07,0.07-0.09,0.11c-0.01,0.02-0.03,0.03-0.03,0.05C3.52,19.86,3.5,19.93,3.5,20v24c0,0.02,0.01,0.03,0.01,0.05  c0,0.03,0.01,0.07,0.02,0.1c0.01,0.03,0.02,0.06,0.04,0.09c0.01,0.02,0.01,0.03,0.02,0.05c0.01,0.01,0.02,0.02,0.03,0.03  c0.02,0.03,0.05,0.05,0.07,0.07c0.03,0.02,0.05,0.04,0.08,0.05c0.03,0.01,0.06,0.02,0.09,0.03c0.03,0.01,0.07,0.02,0.1,0.02  c0.01,0,0.03,0.01,0.04,0.01h40c0.08,0,0.15-0.02,0.21-0.05c0.02-0.01,0.03-0.02,0.05-0.03c0.05-0.03,0.09-0.06,0.12-0.1  c0.01-0.01,0.02-0.01,0.03-0.02c0.01-0.01,0.01-0.03,0.02-0.05c0.02-0.03,0.03-0.06,0.04-0.09c0.01-0.03,0.02-0.07,0.02-0.1  c0-0.02,0.01-0.03,0.01-0.05V20c0-0.07-0.02-0.14-0.05-0.21C44.44,19.78,44.43,19.76,44.42,19.74z M40.5,17.84L43.2,20l-2.7,2.16  V17.84z M24,4.64l2.32,1.86h-4.65L24,4.64z M8.5,8c0-0.28,0.22-0.5,0.5-0.5h30c0.28,0,0.5,0.22,0.5,0.5v14.96l-11.52,9.22  l-3.69-2.58c-0.17-0.12-0.4-0.12-0.57,0l-3.69,2.58L8.5,22.96V8z M7.5,17.84v4.32L4.8,20L7.5,17.84z M4.5,21.04l14.67,11.73  L4.5,43.04V21.04z M5.59,43.5L24,30.61L42.41,43.5H5.59z M43.5,43.04L28.83,32.77L43.5,21.04V43.04z"/><path d="M12,12.5h16c0.28,0,0.5-0.22,0.5-0.5s-0.22-0.5-0.5-0.5H12c-0.28,0-0.5,0.22-0.5,0.5S11.72,12.5,12,12.5z"/><path d="M12,16.5h24c0.28,0,0.5-0.22,0.5-0.5s-0.22-0.5-0.5-0.5H12c-0.28,0-0.5,0.22-0.5,0.5S11.72,16.5,12,16.5z"/><path d="M12,20.5h24c0.28,0,0.5-0.22,0.5-0.5s-0.22-0.5-0.5-0.5H12c-0.28,0-0.5,0.22-0.5,0.5S11.72,20.5,12,20.5z"/><path d="M36.5,24c0-0.28-0.22-0.5-0.5-0.5H12c-0.28,0-0.5,0.22-0.5,0.5s0.22,0.5,0.5,0.5h24C36.28,24.5,36.5,24.28,36.5,24z"/></svg>