<svg xmlns="http://www.w3.org/2000/svg" xmlns:xlink="http://www.w3.org/1999/xlink" version="1.1" x="0px" y="0px" viewBox="0 0 64 80" style="enable-background:new 0 0 64 64;" xml:space="preserve"><g><g><path d="M59.4,51.2c0,0.7-0.5,1.3-1.1,1.3H57c-0.1,0.8-0.7,1.5-1.4,1.5H33.1c0.9-0.5,1.6-1.1,2.2-1.7l0.5-0.6l-0.1-1.8h22.6    C58.9,49.9,59.4,50.5,59.4,51.2z"/><path d="M61.9,21.9c-0.7-0.9-1.7-1.4-2.8-1.4H28.6c-1.7,0-3.1,1.2-3.4,3L24,29.2c0.4,0.4,0.9,0.7,1.1,0.8l1.5,0.5l1.3-6.3    c0.1-0.3,0.3-0.6,0.7-0.6h30.5c0.3,0,0.5,0.2,0.5,0.3c0.1,0.1,0.2,0.3,0.1,0.6l-4.2,20.7H35.3l0.3,3.1h22.4l4.7-23.2    C62.8,24,62.6,22.9,61.9,21.9z"/></g><g><path d="M28.9,54V41.4c0-1.9-1.6-3.5-3.5-3.5H9.9c-1.9,0-3.5,1.6-3.5,3.5V54c-2.2-0.8-4-1.8-5.1-2.9l0.5-5.9l0-3.5l0.4-5v0    c0-0.2-0.2-2.8,3.2-3.3c0,0,0.1,0,0.1,0l5.3-1.6c0.1,0,0.1,0,0.1-0.1c0.3-0.2,1.2-0.8,1.9-1.5c0.1-0.1,0.3-0.2,0.4-0.2H22    c0.2,0,0.3,0.1,0.4,0.2c0.7,0.7,1.6,1.3,1.9,1.5c0,0,0.1,0.1,0.1,0.1l5.3,1.6c0,0,0.1,0,0.1,0c3.4,0.5,3.2,3,3.2,3.3v0l0.4,5    l0,3.5l0.5,6C33,52.2,31.2,53.2,28.9,54z"/><path d="M15.1,26.6c0.8,0.6,1.7,0.9,2.6,0.9c0.9,0,1.8-0.3,2.6-0.9c1.2-0.8,2.1-2.1,2.7-3.4c1-2,1.4-4.3,1.3-6.5    c-0.1-1.2-0.3-2.5-0.9-3.6c-1.1-2.1-3.5-2.9-5.8-3c-2.2,0.1-4.6,0.9-5.8,3c-0.6,1.1-0.8,2.4-0.9,3.6c-0.1,2.2,0.3,4.5,1.3,6.5    C13,24.5,13.9,25.7,15.1,26.6z"/></g></g><text x="0" y="79" fill="#000000" font-size="5px" font-weight="bold" font-family="'Helvetica Neue', Helvetica, Arial-Unicode, Arial, Sans-serif">Created by Md Saiful Alam Saif</text><text x="0" y="84" fill="#000000" font-size="5px" font-weight="bold" font-family="'Helvetica Neue', Helvetica, Arial-Unicode, Arial, Sans-serif">from the Noun Project</text></svg>