<svg style = "fill : white" xmlns="http://www.w3.org/2000/svg" xmlns:xlink="http://www.w3.org/1999/xlink" version="1.1" x="0px" y="0px" viewBox="0 0 100 125" enable-background="new 0 0 100 100" xml:space="preserve"><path d="M25.754,31.628H74.2c0.553,0,1-0.447,1-1s-0.447-1-1-1h-1.806c-1.09-11.426-6.402-18.455-15.796-20.917V7.149  c0-0.685-0.484-1.283-1.154-1.425c-3.281-0.681-6.745-0.702-10.076-0.065c-0.684,0.129-1.18,0.729-1.18,1.428v1.545  C33.646,11.152,28.97,21.28,28.123,29.628h-2.369c-0.553,0-1,0.447-1,1S25.201,31.628,25.754,31.628z M50.259,15.3  c2.976,0,5.396,2.421,5.396,5.397c0,2.976-2.421,5.396-5.396,5.396c-2.977,0-5.397-2.421-5.397-5.396  C44.861,17.721,47.282,15.3,50.259,15.3z M54.599,7.597v7.123c-1.221-0.889-2.718-1.42-4.34-1.42c-1.503,0-2.902,0.453-4.07,1.227  V7.543C48.98,7.064,51.855,7.082,54.599,7.597z M44.188,10.692v5.79c-0.834,1.197-1.327,2.649-1.327,4.216  c0,4.078,3.318,7.396,7.397,7.396c4.078,0,7.396-3.318,7.396-7.396c0-1.386-0.39-2.68-1.057-3.791v-6.128  c8.239,2.349,12.758,8.533,13.785,18.849H30.135C30.951,22.119,35.07,13.139,44.188,10.692z M61.498,20.706  c-0.597,0-1.081,0.484-1.081,1.081s0.484,1.081,1.081,1.081s1.081-0.484,1.081-1.081S62.095,20.706,61.498,20.706z M69.204,89.927  c0,0.597,0.484,1.081,1.081,1.081c0.597,0,1.081-0.484,1.081-1.081c0-0.597-0.484-1.081-1.081-1.081  C69.687,88.847,69.204,89.331,69.204,89.927z M31.348,89.927c0-0.597-0.484-1.081-1.081-1.081s-1.081,0.484-1.081,1.081  c0,0.597,0.484,1.081,1.081,1.081S31.348,90.524,31.348,89.927z M39.291,20.706c-0.597,0-1.081,0.484-1.081,1.081  s0.484,1.081,1.081,1.081c0.597,0,1.081-0.484,1.081-1.081S39.888,20.706,39.291,20.706z M49.977,65.056  c2.996,0,5.774-0.346,8.259-1.029c0.533-0.146,0.846-0.696,0.699-1.229c-0.146-0.534-0.704-0.848-1.229-0.699  c-2.313,0.635-4.913,0.957-7.729,0.957c-2.753,0-5.725-0.406-8.366-1.145c-0.531-0.148-1.084,0.161-1.232,0.693  s0.162,1.084,0.693,1.232C43.884,64.623,47.046,65.056,49.977,65.056z M87.604,74.375c-0.715-4.91-4.071-8.97-8.775-10.599  l-16.059-5.271c-0.946-0.311-1.623-1.15-1.727-2.157l-0.754-6.302c5.714-3.426,9.558-9.662,9.558-16.795h-2  c0,9.699-7.891,17.59-17.59,17.59s-17.59-7.891-17.59-17.59h-2c0,6.905,3.6,12.974,9.013,16.464l-0.744,6.854  c-0.096,1.004-0.776,1.854-1.735,2.164l-15.529,5.048c-4.689,1.624-8.046,5.684-8.759,10.58L9.687,94.354h2.045l3.158-19.689  c0.607-4.169,3.457-7.614,7.419-8.986l10.132-3.294v29.788h-4.348V65.797l-2,0.549v27.826h8.348V61.734l3.379-1.098  c0.954-0.309,1.746-0.924,2.299-1.709c2.838,1.112,6.442,1.77,9.858,1.77c3.875,0,7.212-0.647,9.946-1.913  c0.548,0.743,1.312,1.323,2.224,1.622l3.963,1.301v32.466h8.348V66.346l-2-0.617v26.443H68.11V62.363l10.08,3.309  c3.979,1.378,6.828,4.823,7.438,9.006l3.157,19.676h2.027L87.604,74.375z M49.977,58.696c-3.17,0-6.497-0.602-9.101-1.621  c0.017-0.101,0.042-0.199,0.051-0.302l0.657-5.984c2.619,1.301,5.557,2.051,8.674,2.051c2.905,0,5.655-0.653,8.137-1.792  l0.661,5.521c0.013,0.13,0.044,0.254,0.068,0.38C56.647,58.105,53.58,58.696,49.977,58.696z M50.394,12.346c0.553,0,1-0.447,1-1  V9.41c0-0.553-0.447-1-1-1s-1,0.447-1,1v1.936C49.394,11.898,49.841,12.346,50.394,12.346z M36.279,87.236h28.005v-2H36.279V87.236z   M42.593,94.349h15.378v-2H42.593V94.349z"/></svg>