<svg xmlns="http://www.w3.org/2000/svg" xmlns:xlink="http://www.w3.org/1999/xlink" version="1.1" x="0px" y="0px" viewBox="0 0 100 125" enable-background="new 0 0 100 100" xml:space="preserve"><path d="M70.33,52.225c-1.858,0-3.649,0.279-5.347,0.775c-3.087-1.918-6.483-3.383-10.104-4.287  c6.966-3.256,11.804-10.305,11.805-18.503C66.682,18.925,57.535,9.777,46.25,9.775C34.965,9.777,25.818,18.925,25.817,30.21  c0.001,8.192,4.832,15.237,11.791,18.495c-15.472,3.863-26.937,17.849-26.938,34.52c0,0.395,0.16,0.781,0.439,1.061  s0.666,0.439,1.061,0.439h44.794c3.433,3.398,8.152,5.5,13.365,5.5c10.495,0,19-8.505,19-19S80.825,52.225,70.33,52.225z   M33.923,42.537c-3.157-3.16-5.105-7.508-5.106-12.327c0.001-4.819,1.949-9.168,5.106-12.327c3.16-3.158,7.508-5.105,12.327-5.106  c4.819,0.001,9.167,1.948,12.327,5.106c3.157,3.16,5.105,7.508,5.106,12.327c-0.001,4.819-1.949,9.167-5.106,12.327  c-3.159,3.157-7.508,5.105-12.327,5.105C41.431,47.643,37.083,45.694,33.923,42.537z M23.213,60.186  c5.9-5.898,14.036-9.541,23.036-9.542c5.504,0.001,10.678,1.371,15.222,3.778c-6.029,3.185-10.142,9.509-10.142,16.803  c0,3.884,1.17,7.491,3.169,10.5H13.708C14.09,73.321,17.645,65.756,23.213,60.186z M70.33,87.225c-8.822,0-16-7.178-16-16  s7.178-16,16-16s16,7.178,16,16S79.152,87.225,70.33,87.225z"/><path d="M79.924,69.723l-8.095,0.001l0.001-8.095c0-0.828-0.671-1.5-1.5-1.5c-0.828,0-1.5,0.672-1.5,1.5l-0.001,8.095l-8.095,0.001  c-0.829,0-1.5,0.672-1.5,1.5s0.672,1.5,1.5,1.5l8.095-0.001l-0.001,8.097c0,0.828,0.671,1.5,1.5,1.5c0.828,0,1.5-0.672,1.5-1.5  l0.001-8.097l8.095-0.001c0.829,0,1.5-0.672,1.5-1.5S80.752,69.723,79.924,69.723z"/></svg>