<svg xmlns="http://www.w3.org/2000/svg" viewBox="0 0 60 75" x="0px" y="0px">
  <title>031 - Multiple Documents</title>
  <g data-name="Outer Lines">
    <path d="M8,48h3v3a3,3,0,0,0,3,3h3v3a3,3,0,0,0,3,3H52a3,3,0,0,0,3-3V15a3,3,0,0,0-3-3H49V9a3,3,0,0,0-3-3H43V3a3,3,0,0,0-3-3H16c-.019,0-.037.01-.056.011a.96.96,0,0,0-.269.054A.814.814,0,0,0,15.588.1a1,1,0,0,0-.295.2l-10,10a.984.984,0,0,0-.2.293c-.014.031-.022.062-.033.094a.945.945,0,0,0-.051.257c0,.022-.013.041-.013.063V45A3,3,0,0,0,8,48ZM52,14a1,1,0,0,1,1,1V57a1,1,0,0,1-1,1H20a1,1,0,0,1-1-1V54H46a3,3,0,0,0,3-3V14ZM46,8a1,1,0,0,1,1,1V51a1,1,0,0,1-1,1H14a1,1,0,0,1-1-1V48H40a3,3,0,0,0,3-3V8ZM41,3V45a1,1,0,0,1-1,1H8a1,1,0,0,1-1-1V12h7a3,3,0,0,0,3-3V2H40A1,1,0,0,1,41,3ZM15,3.414V9a1,1,0,0,1-1,1H8.414Z"/>
  </g>
</svg>