<svg xmlns="http://www.w3.org/2000/svg" xmlns:xlink="http://www.w3.org/1999/xlink" version="1.1" x="0px" y="0px" viewBox="0 0 48 60" style="enable-background:new 0 0 48 48;" xml:space="preserve"><g><path d="M14.78,24.45l16,8c0.07,0.04,0.15,0.05,0.22,0.05c0.18,0,0.36-0.1,0.45-0.28c0.12-0.25,0.02-0.55-0.22-0.67L16.12,24   l15.11-7.55c0.25-0.12,0.35-0.42,0.22-0.67c-0.12-0.25-0.42-0.35-0.67-0.22l-16,8c-0.17,0.08-0.28,0.26-0.28,0.45   S14.61,24.36,14.78,24.45z"/><path d="M24,44.5c11.3,0,20.5-9.2,20.5-20.5S35.3,3.5,24,3.5S3.5,12.7,3.5,24S12.7,44.5,24,44.5z M24,4.5   c10.75,0,19.5,8.75,19.5,19.5c0,10.75-8.75,19.5-19.5,19.5S4.5,34.75,4.5,24C4.5,13.25,13.25,4.5,24,4.5z"/></g></svg>