<svg xmlns="http://www.w3.org/2000/svg" xmlns:xlink="http://www.w3.org/1999/xlink" version="1.1" x="0px" y="0px" viewBox="0 0 96 120" enable-background="new 0 0 96 96" xml:space="preserve"><g><path d="M66.956,7H17.357v82h61.286V17.556L66.956,7z M76.643,87H19.357V9h46.829l10.457,9.444V87z"/><path d="M40.483,54.53l-8.511-9.456c-0.734-0.816-1.824-1.284-2.99-1.284c-1.007,0-1.952,0.351-2.659,0.986   c-0.793,0.713-1.262,1.694-1.319,2.762c-0.057,1.066,0.306,2.092,1.022,2.888l11.25,12.5c0.717,0.796,1.74,1.276,2.814,1.319   l0.159,0.004c1.025,0,2-0.388,2.745-1.092l26.751-25.25c0.775-0.732,1.221-1.724,1.253-2.793c0.03-1.069-0.357-2.085-1.089-2.86   c-0.728-0.772-1.792-1.216-2.92-1.216c-1.047,0-2.019,0.374-2.735,1.051L40.483,54.53z M68.454,33.627   c0.366,0.389,0.56,0.897,0.545,1.43c-0.017,0.536-0.238,1.032-0.625,1.397l-26.751,25.25c-0.374,0.353-0.861,0.546-1.359,0.546   l-0.097-0.003c-0.535-0.021-1.046-0.261-1.404-0.66l-11.25-12.5c-0.357-0.396-0.538-0.908-0.51-1.442   c0.028-0.534,0.262-1.025,0.659-1.381c0.368-0.331,0.843-0.514,1.337-0.514c0.566,0,1.109,0.241,1.487,0.663l9.879,10.977   l25.26-23.844C66.368,32.848,67.756,32.888,68.454,33.627z"/></g></svg>