<svg xmlns="http://www.w3.org/2000/svg" xmlns:xlink="http://www.w3.org/1999/xlink" version="1.1" x="0px" y="0px" viewBox="0 0 56 70" style="enable-background:new 0 0 56 56;" xml:space="preserve"><path d="M38.4697266,2.921875H14.9512939c-0.2996826-0.0361328-0.6049194,0.0627441-0.8253174,0.2832031L3.2942505,14.0368652  c-0.0022583,0.0021973-0.0036011,0.005127-0.0058594,0.0073242c-0.081543,0.0827637-0.1416626,0.1789551-0.1890259,0.2805176  c-0.0142212,0.0305176-0.0223999,0.0622559-0.0335693,0.0942383c-0.0302124,0.0864258-0.0479126,0.1743164-0.0535889,0.265625  C3.0108643,14.7055664,3,14.7236328,3,14.7451172V51.921875c0,0.5527344,0.4472656,1,1,1h34.4697266c0.5527344,0,1-0.4472656,1-1  v-48C39.4697266,3.3691406,39.0224609,2.921875,38.4697266,2.921875z M13.8330078,6.3261719v7.4189453H6.4140625  L13.8330078,6.3261719z M37.4697266,50.921875H5V15.7451172h9.8330078c0.5527344,0,1-0.4472656,1-1V4.921875h21.6367188V50.921875z"/><path d="M19.4697266,10.921875h13.2919922c0.5527344,0,1-0.4472656,1-1s-0.4472656-1-1-1H19.4697266c-0.5527344,0-1,0.4472656-1,1  S18.9169922,10.921875,19.4697266,10.921875z"/><path d="M32.7617188,17.921875H9.7080078c-0.5527344,0-1,0.4472656-1,1s0.4472656,1,1,1h23.0537109c0.5527344,0,1-0.4472656,1-1  S33.3144531,17.921875,32.7617188,17.921875z"/><path d="M32.7617188,26.921875H9.7080078c-0.5527344,0-1,0.4472656-1,1s0.4472656,1,1,1h23.0537109c0.5527344,0,1-0.4472656,1-1  S33.3144531,26.921875,32.7617188,26.921875z"/><path d="M32.7617188,35.921875H9.7080078c-0.5527344,0-1,0.4472656-1,1s0.4472656,1,1,1h23.0537109c0.5527344,0,1-0.4472656,1-1  S33.3144531,35.921875,32.7617188,35.921875z"/><path d="M32.7617188,44.921875H9.7080078c-0.5527344,0-1,0.4472656-1,1s0.4472656,1,1,1h23.0537109c0.5527344,0,1-0.4472656,1-1  S33.3144531,44.921875,32.7617188,44.921875z"/><path d="M49.4765625,2.921875h-3.9833984c-1.9423828,0-3.5234375,1.9013672-3.5234375,4.2382812v35.9589844  c0,0.1518555,0.0393066,0.2919922,0.0997314,0.4208984c0.0041504,0.0087891,0.0022583,0.0195312,0.0067139,0.0283203  l4.515625,8.96875c0.1699219,0.3378906,0.515625,0.5507812,0.8935547,0.5507812s0.7236328-0.2128906,0.8935547-0.5507812  l4.5146484-8.96875c0.0044556-0.0087891,0.0025635-0.0195312,0.0067139-0.0283203  C52.9607544,43.4111328,53,43.2709961,53,43.1191406V7.1601562C53,4.8232422,51.4189453,2.921875,49.4765625,2.921875z   M43.9697266,12.7851562h2.515625v29.3339844h-2.515625V12.7851562z M47.4853516,49.8642578l-2.8926392-5.7451172h5.7844849  L47.4853516,49.8642578z M51,42.1191406h-2.5146484V12.7851562H51V42.1191406z M51,10.7851562h-7.0302734v-3.625  c0-1.2128906,0.6972656-2.2382812,1.5234375-2.2382812h3.9833984C50.3027344,4.921875,51,5.9472656,51,7.1601562V10.7851562z"/></svg>