<?xml version="1.0" encoding="iso-8859-1"?>
<!-- Generator: Adobe Illustrator 19.0.0, SVG Export Plug-In . SVG Version: 6.00 Build 0)  -->
<svg version="1.1" id="Capa_1" xmlns="http://www.w3.org/2000/svg" xmlns:xlink="http://www.w3.org/1999/xlink" x="0px" y="0px"
	 viewBox="0 0 512 512" style="enable-background:new 0 0 512 512;" xml:space="preserve">
<g>
	<g>
		<path d="M494.398,102.517c23.466-23.465,23.47-61.448,0-84.916c-23.466-23.467-61.446-23.468-84.915,0
			C403.116,23.969,95.087,331.998,91.05,336.035c-48.303,48.302-53.747,96.417-56.072,116.964c-0.116,1.02-0.243,2.138-0.366,3.16
			L0,490.771L21.229,512l34.465-34.465c48.595-6.341,89.058-25.371,120.272-56.585l244.132-244.133l10.615,10.615
			c5.852,5.853,5.854,15.374,0.003,21.226L313.954,325.42l21.229,21.229L473.17,208.661c25.887-25.886,28.732-65.591,9.555-94.471
			L494.398,102.517z M66.213,445.415c2.855-18.712,10.132-47.016,35.867-77.122l41.521,41.521
			C122.188,427.511,96.273,439.456,66.213,445.415z M165.352,389.107l-42.458-42.458L356.412,113.13l42.457,42.458L165.352,389.107z
			 M459.826,176.837c-2.039-3.824-4.665-7.414-7.884-10.634L377.64,91.902l21.229-21.229l53.072,53.072
			C466.468,138.271,468.857,160.004,459.826,176.837z M473.17,81.287l-10.614,10.615l-42.458-42.458l10.615-10.615
			c11.733-11.733,30.724-11.735,42.457,0C484.904,50.564,484.903,69.552,473.17,81.287z"/>
	</g>
</g>
<g>
</g>
<g>
</g>
<g>
</g>
<g>
</g>
<g>
</g>
<g>
</g>
<g>
</g>
<g>
</g>
<g>
</g>
<g>
</g>
<g>
</g>
<g>
</g>
<g>
</g>
<g>
</g>
<g>
</g>
</svg>
