<svg xmlns="http://www.w3.org/2000/svg" xmlns:xlink="http://www.w3.org/1999/xlink" version="1.1" x="0px" y="0px" viewBox="0 0 100 125" style="enable-background:new 0 0 100 100;" xml:space="preserve"><path d="M79.3652344,10H63.2275391c-0.5527344,0-1,0.4472656-1,1v14.4287109h-8.7021484  c-0.3935547,0-0.7509766,0.2314453-0.9121094,0.5908203s-0.0966797,0.7802734,0.1650391,1.0742188L70.515625,46.9990234  c0.1904297,0.2128906,0.4619141,0.3349609,0.7470703,0.3349609s0.5566406-0.1220703,0.7470703-0.3349609L89.7470703,27.09375  c0.2617188-0.2939453,0.3261719-0.7148438,0.1650391-1.0742188S89.3935547,25.4287109,89,25.4287109h-8.6347656V11  C80.3652344,10.4472656,79.9179688,10,79.3652344,10z M86.7695312,27.4287109L71.2626953,44.8310547L55.7558594,27.4287109  h7.4716797c0.5527344,0,1-0.4472656,1-1V12h14.1376953v14.4287109c0,0.5527344,0.4472656,1,1,1H86.7695312z"/><path d="M30.375,30.6298828c5.6875,0,10.3144531-4.6279297,10.3144531-10.3154297S36.0625,10,30.375,10  s-10.3144531,4.6269531-10.3144531,10.3144531S24.6875,30.6298828,30.375,30.6298828z M30.375,12  c4.5849609,0,8.3144531,3.7294922,8.3144531,8.3144531S34.9599609,28.6298828,30.375,28.6298828  s-8.3144531-3.7304688-8.3144531-8.3154297S25.7900391,12,30.375,12z"/><path d="M44.75,89V68.9287109c3.3876953-0.4863281,6-3.4082031,6-6.9287109V47.6279297  C50.75,41.3544922,45.6455078,36.25,39.3720703,36.25H21.3779297C15.1044922,36.25,10,41.3544922,10,47.6279297V62  c0,3.5205078,2.6123047,6.4423828,6,6.9287109V89c0,0.5527344,0.4472656,1,1,1h26.75C44.3027344,90,44.75,89.5527344,44.75,89z   M42.75,68v20H18V68c0-0.5527344-0.4472656-1-1-1c-2.7568359,0-5-2.2431641-5-5V47.6279297  C12,42.4570312,16.2070312,38.25,21.3779297,38.25h17.9941406C44.5429688,38.25,48.75,42.4570312,48.75,47.6279297V62  c0,2.7568359-2.2431641,5-5,5C43.1972656,67,42.75,67.4472656,42.75,68z"/><path d="M89,88h-0.5175781V61.1494141c0-0.5527344-0.4472656-1-1-1H73.8564453c-0.5527344,0-1,0.4472656-1,1V88h-3.1865234  V56.4804688c0-0.5527344-0.4472656-1-1-1H55.0439453c-0.5527344,0-1,0.4472656-1,1V88h-0.5185547c-0.5527344,0-1,0.4472656-1,1  s0.4472656,1,1,1H89c0.5527344,0,1-0.4472656,1-1S89.5527344,88,89,88z M74.8564453,62.1494141h11.6259766V88H74.8564453V62.1494141  z M56.0439453,57.4804688h11.6259766V88H56.0439453V57.4804688z"/></svg>