<svg xmlns="http://www.w3.org/2000/svg" data-name="Layer 1" viewBox="0 0 48 60" x="0px" y="0px"><title>document file</title><path d="M38,15h0a.09.09,0,0,0,0,0,.7.7,0,0,0-.05-.25.2.2,0,0,0,0-.07l0,0a.84.84,0,0,0-.2-.29l-8-8a1,1,0,0,0-.3-.2l0,0h-.07A1,1,0,0,0,29,6H29L11,6a1,1,0,0,0-.7.3A1,1,0,0,0,10,7L10,41a1,1,0,0,0,1,1h0l26-.06a1,1,0,0,0,1-1Zm-3.42-1H30V9.4l2.3,2.29ZM12,40,12,8,28,8l0,7a1,1,0,0,0,.29.71A1,1,0,0,0,29,16h0l7,0L36,40Z"/><path d="M16,22H32a1,1,0,0,0,0-2H16a1,1,0,0,0,0,2Z"/><path d="M16,16h9a1,1,0,0,0,0-2H16a1,1,0,0,0,0,2Z"/><path d="M32,26H16a1,1,0,0,0,0,2H32a1,1,0,0,0,0-2Z"/><path d="M32,32H16a1,1,0,0,0,0,2H32a1,1,0,0,0,0-2Z"/></svg>