<svg xmlns="http://www.w3.org/2000/svg" xmlns:xlink="http://www.w3.org/1999/xlink" version="1.1" x="0px" y="0px" viewBox="0 0 100 125" enable-background="new 0 0 100 100" xml:space="preserve"><title>Write Message</title><path d="M98.16,7L93,1.84c-2.434-2.42-6.366-2.42-8.8,0L35.4,50.48c-0.287,0.282-0.482,0.645-0.56,1.04L32,65.6  c-0.221,1.082,0.478,2.139,1.56,2.359C33.691,67.986,33.826,68,33.96,68h0.4l14-2.84c0.381-0.086,0.729-0.279,1-0.561L98.16,16  c2.441-2.433,2.447-6.384,0.016-8.825C98.17,7.17,98.165,7.165,98.16,7.16V7z M47,61.32l-10.44,2.119l2.12-10.56L79.52,12L88,20.44  L47,61.32z M95.359,13L95.359,13l-4.639,4.64l-8.361-8.36L87,4.64c0.874-0.87,2.286-0.87,3.16,0l5.199,5.2  C96.229,10.714,96.229,12.126,95.359,13z M84,44h4v51c-0.021,2.752-2.248,4.979-5,5H5c-2.761,0-5-2.238-5-5V17c0-2.761,2.239-5,5-5  h51v4H5c-0.552,0-1,0.448-1,1v78c0,0.553,0.448,1,1,1h78c0.553,0,1-0.447,1-1V44z"/></svg>