<svg xmlns="http://www.w3.org/2000/svg" xmlns:xlink="http://www.w3.org/1999/xlink" version="1.1" x="0px" y="0px" viewBox="0 0 32 40" enable-background="new 0 0 32 32" xml:space="preserve"><g><g><path d="M30,1.5H2C1.724,1.5,1.5,1.724,1.5,2v20v8c0,0.276,0.224,0.5,0.5,0.5h28c0.276,0,0.5-0.224,0.5-0.5v-8V2    C30.5,1.724,30.276,1.5,30,1.5z M29.5,2.5v18.293l-6.146-6.146c-0.195-0.195-0.512-0.195-0.707,0l-6.605,6.605l-7.651-9.564    c-0.102-0.127-0.257-0.195-0.424-0.187c-0.163,0.011-0.311,0.102-0.395,0.242L2.5,20.195V2.5H29.5z M29.5,29.5h-27v-7.361    l5.559-9.265l7.551,9.438c0.089,0.111,0.221,0.179,0.363,0.187c0.139,0.009,0.281-0.044,0.381-0.146L23,15.707l6.5,6.5V29.5z"/><path d="M12,8.5c1.378,0,2.5-1.122,2.5-2.5S13.378,3.5,12,3.5S9.5,4.622,9.5,6S10.622,8.5,12,8.5z M12,4.5    c0.827,0,1.5,0.673,1.5,1.5S12.827,7.5,12,7.5S10.5,6.827,10.5,6S11.173,4.5,12,4.5z"/></g></g></svg>