<svg xmlns="http://www.w3.org/2000/svg" xmlns:xlink="http://www.w3.org/1999/xlink" version="1.1" x="0px" y="0px" viewBox="0 0 100 94.39" enable-background="new 0 0 100 75.512" xml:space="preserve"><path fill="#000000" d="M100,1.02c0-0.133-0.027-0.265-0.078-0.39c-0.103-0.25-0.302-0.449-0.552-0.552  C99.245,0.027,99.112,0,98.98,0H1.02c-0.133,0-0.265,0.027-0.39,0.078c-0.25,0.103-0.449,0.302-0.552,0.552  C0.027,0.755,0,0.888,0,1.02v73.471c0,0.133,0.027,0.265,0.078,0.39c0.103,0.25,0.302,0.449,0.552,0.552  c0.125,0.052,0.257,0.078,0.39,0.078H98.98c0.133,0,0.265-0.027,0.39-0.078c0.25-0.103,0.449-0.302,0.552-0.552  c0.052-0.125,0.078-0.257,0.078-0.39V1.02z M61.528,37.031c-0.001,0.001-0.003,0.002-0.004,0.003  c-0.001,0.001-0.002,0.003-0.003,0.004L50,48.559L3.484,2.041h93.033L61.528,37.031z M36.313,37.756L2.041,72.028V3.484  L36.313,37.756z M37.756,39.199l11.523,11.524c0.191,0.191,0.45,0.299,0.721,0.299c0.27,0,0.531-0.108,0.722-0.299L62.246,39.2  l34.271,34.272H3.484L37.756,39.199z M63.689,37.757L97.959,3.484v68.544L63.689,37.757z"/></svg>