<svg xmlns="http://www.w3.org/2000/svg" viewBox="0 0 512 640" x="0px" y="0px"><path d="M488,368H472v-8a8.00008,8.00008,0,0,0-8-8H440a7.99927,7.99927,0,0,0-6.3999,3.2002l-19.76245,26.34985L365.78418,354.0918l-22.92432-38.208a8.00252,8.00252,0,0,0-2.90771-2.83984L293.197,286.47754A47.76971,47.76971,0,0,0,304,256.18066V224h16V208H297.0625l6.876-55.00781A8.00077,8.00077,0,0,0,296,144H216a8.00077,8.00077,0,0,0-7.93848,8.99219L214.93748,208H192v16h16v32.18066a47.76971,47.76971,0,0,0,10.803,30.29688L172.04785,313.044a8.00252,8.00252,0,0,0-2.90771,2.83984l-22.92432,38.208L98.16229,381.55005,78.3999,355.2002A7.99927,7.99927,0,0,0,72,352H48a8.00008,8.00008,0,0,0-8,8v8H24a8.00008,8.00008,0,0,0-8,8v32a7.99946,7.99946,0,0,0,3.56248,6.65625l24,16A7.99994,7.99994,0,0,0,48,432H160a8.00209,8.00209,0,0,0,3.54541-.82812L184,421.05957V488a8.00008,8.00008,0,0,0,8,8H320a8.00008,8.00008,0,0,0,8-8V421.05957l20.45459,10.11231A8.00209,8.00209,0,0,0,352,432H464a7.99983,7.99983,0,0,0,4.4375-1.34375l24-16A7.99943,7.99943,0,0,0,496,408V376A8.00008,8.00008,0,0,0,488,368ZM88,416H50.42236L32,403.71875V384H49.05206l8.29169,12.4375,13.3125-8.875L57.61475,368H68l20,26.6665Zm70.13037,0H104V396.64258l51.96924-29.69629a8.00941,8.00941,0,0,0,2.89062-2.83008l13.06348-21.77246,11.12909,61.33569ZM286.9375,160l-6,48h-49.875l-6-48ZM224,224h64v32.18066a32,32,0,0,1-64,0Zm69.09644,80.82373L264,341.19409V303.50122a47.65756,47.65756,0,0,0,16.298-5.94946Zm-61.39441-7.272A47.6571,47.6571,0,0,0,248,303.50122v40.499l-29.297-39.0625Zm2.0509,81.45117A7.998,7.998,0,0,0,232,384v96H200V408.18066a7.9631,7.9631,0,0,0-.14368-1.426l.01526-.00269L184.8844,324.15332l19.79517-11.24756,39.65374,52.87158Zm78.37549,27.749.01526.00269a7.9686,7.9686,0,0,0-.14368,1.426V480H248V386.80664l59.18274-73.979,19.93286,11.32568ZM408,416H353.86963l-24.92212-12.32056,11.12915-61.33569,13.06348,21.77246a8.00941,8.00941,0,0,0,2.89062,2.83008L408,396.64258Zm72-12.28125L461.57764,416H424V394.6665L444,368h10.38525l-13.0415,19.5625,13.3125,8.875L462.948,384H480Z"/><circle cx="264" cy="392" r="8"/><circle cx="264" cy="424" r="8"/><circle cx="264" cy="456" r="8"/><path d="M64,304a48,48,0,1,0-48-48A48.05405,48.05405,0,0,0,64,304Zm0-80a32,32,0,1,1-32,32A32.03635,32.03635,0,0,1,64,224Z"/><path d="M154.17627,154.17676a48.00019,48.00019,0,1,0-33.94092,14.05859A48.0548,48.0548,0,0,0,154.17627,154.17676ZM97.60791,97.6084a32,32,0,1,1,0,45.2539A31.79223,31.79223,0,0,1,97.60791,97.6084Z"/><path d="M256,112a48,48,0,1,0-48-48A48.05405,48.05405,0,0,0,256,112Zm0-80a32,32,0,1,1-32,32A32.03635,32.03635,0,0,1,256,32Z"/><path d="M425.70557,154.17676a48.00019,48.00019,0,1,0-33.94092,14.05859A48.0548,48.0548,0,0,0,425.70557,154.17676ZM369.13721,97.6084a32,32,0,1,1,0,45.2539A31.78653,31.78653,0,0,1,369.13721,97.6084Z"/><path d="M448,208a48,48,0,1,0,48,48A48.05405,48.05405,0,0,0,448,208Zm0,80a32,32,0,1,1,32-32A32.03635,32.03635,0,0,1,448,288Z"/><circle cx="240" cy="240" r="8"/><circle cx="272" cy="240" r="8"/></svg>