<svg xmlns="http://www.w3.org/2000/svg" data-name="Слой 1" viewBox="0 0 128 160" x="0px" y="0px"><title>ic_logout</title><path d="M128,1.57l0-.11a1.45,1.45,0,0,0-.11-.29.54.54,0,0,0-.07-.13,1.76,1.76,0,0,0-.14-.23,1.47,1.47,0,0,1-.1-.13,1.71,1.71,0,0,0-.2-.18l-.06-.07-.06,0a2,2,0,0,0-.24-.16l-.12-.06a2.13,2.13,0,0,0-.33-.11l-.07,0A2,2,0,0,0,126,0H44a2,2,0,0,0-2,2V52a2,2,0,0,0,4,0V4h63.19L67.53,14.06A2,2,0,0,0,66,16V126a2,2,0,0,0,.76,1.57A2,2,0,0,0,68,128a1.89,1.89,0,0,0,.47-.06l58-14A2,2,0,0,0,128,112V2A2,2,0,0,0,128,1.57Zm-4,108.86-54,13V17.57l54-13Z"/><path d="M60.06,110H46V76a2,2,0,0,0-4,0v36a2,2,0,0,0,2,2H60.06a2,2,0,0,0,0-4Z"/><path d="M6.83,66H60a2,2,0,0,0,0-4H6.83L33.41,35.41a2,2,0,1,0-2.82-2.82l-30,30a2,2,0,0,0,0,2.82l30,30a2,2,0,1,0,2.82-2.82Z"/></svg>