<svg xmlns="http://www.w3.org/2000/svg" xmlns:xlink="http://www.w3.org/1999/xlink" version="1.1" x="0px" y="0px" viewBox="0 0 100 125" enable-background="new 0 0 100 100" xml:space="preserve"><g><path d="M50.789,51.238c0,1.076,0.875,1.951,1.951,1.951c1.075,0,1.95-0.875,1.95-1.951s-0.875-1.951-1.95-1.951   S50.789,50.162,50.789,51.238z M52.289,51.238c0-0.249,0.202-0.451,0.451-0.451c0.248,0,0.45,0.202,0.45,0.451   s-0.202,0.451-0.45,0.451S52.289,51.487,52.289,51.238z"/><path d="M16.352,85.075v1.5h19.225l20.887-5.951l0-58.773l-16.106-4.45h24.064v69.174h19.225v-1.5H68.636V13.19H31.361v71.885   H16.352z M35.576,84.839l0-67.203l19.387,5.356l0,56.49L35.576,84.839z M32.861,85.075l0-70.385h34.274v70.385h-1.214V15.901   H34.929l-0.852-0.235v0.235l0,69.174C34.077,85.075,32.861,85.075,32.861,85.075z"/></g></svg>