<svg dc="http://purl.org/dc/elements/1.1/" xmlns:cc="http://creativecommons.org/ns#" xmlns:rdf="http://www.w3.org/1999/02/22-rdf-syntax-ns#" xmlns:svg="http://www.w3.org/2000/svg" xmlns="http://www.w3.org/2000/svg" xmlns:sodipodi="http://sodipodi.sourceforge.net/DTD/sodipodi-0.dtd" xmlns:inkscape="http://www.inkscape.org/namespaces/inkscape" viewBox="0 0 8.4666667 10.583333625" version="1.1" x="0px" y="0px"><g><path style="color:#000000;font-style:normal;font-variant:normal;font-weight:normal;font-stretch:normal;font-size:medium;line-height:normal;font-family:sans-serif;font-variant-ligatures:normal;font-variant-position:normal;font-variant-caps:normal;font-variant-numeric:normal;font-variant-alternates:normal;font-feature-settings:normal;text-indent:0;text-align:start;text-decoration:none;text-decoration-line:none;text-decoration-style:solid;text-decoration-color:#000000;letter-spacing:normal;word-spacing:normal;text-transform:none;writing-mode:lr-tb;direction:ltr;text-orientation:mixed;dominant-baseline:auto;baseline-shift:baseline;text-anchor:start;white-space:normal;shape-padding:0;clip-rule:nonzero;display:inline;overflow:visible;visibility:visible;opacity:1;isolation:auto;mix-blend-mode:normal;color-interpolation:sRGB;color-interpolation-filters:linearRGB;solid-color:#000000;solid-opacity:1;vector-effect:none;fill:#000000;fill-opacity:1;fill-rule:nonzero;stroke:none;stroke-width:0.52916664;stroke-linecap:round;stroke-linejoin:round;stroke-miterlimit:4;stroke-dasharray:none;stroke-dashoffset:0;stroke-opacity:1;color-rendering:auto;image-rendering:auto;shape-rendering:auto;text-rendering:auto;enable-background:accumulate" d="M 3.1855936,-1.6666667e-7 C 2.2308209,-1.6666667e-7 1.4513319,0.77948883 1.4513319,1.7342618 c 0,0.95477 0.779489,1.734777 1.7342617,1.734777 0.9547701,0 1.7342591,-0.780007 1.7342591,-1.734777 0,-0.95477297 -0.779489,-1.73426196666667 -1.7342591,-1.73426196666667 z m 0,0.52916699666667 c 0.6687873,0 1.2050924,0.53630497 1.2050924,1.20509497 0,0.668787 -0.5363051,1.205092 -1.2050924,1.205092 -0.6687899,0 -1.205095,-0.536305 -1.205095,-1.205092 0,-0.66879 0.5363051,-1.20509497 1.205095,-1.20509497 z m 0.010335,3.38738897 c -1.2699921,0 -2.30735192,1.037362 -2.30735192,2.307354 v 0.973582 c 0,0.127 0.12673012,0.254249 0.25373012,0.254249 h 2.9496914 c 0.304075,0.60057 0.9252876,1.014926 1.6422767,1.014926 1.0150395,0 1.8438151,-0.828776 1.8438151,-1.843816 0,-1.015042 -0.8287756,-1.843299 -1.8438151,-1.843299 -0.2337647,0 -0.4564989,0.04551 -0.6624929,0.125574 -0.4099563,-0.597344 -1.0995213,-0.98857 -1.8758534,-0.98857 z m 0,0.529166 c 0.5709867,0 1.0993754,0.275021 1.416968,0.71882 -0.4369143,0.33773 -0.7203704,0.865413 -0.7203704,1.458309 0,0.01446 0.00173,0.02851 0.00207,0.04289 3.307e-4,0.08738 0.00234,0.165195 0.020672,0.256831 H 1.4177431 v -0.698664 c 0,-0.994828 0.7833598,-1.778188 1.7781852,-1.778188 z m 2.5383463,0.862997 c 0.7290567,0 1.3146484,0.585073 1.3146484,1.314132 0,0.729057 -0.5855917,1.314649 -1.3146484,1.314649 -0.6293432,0 -1.1494453,-0.436975 -1.2805437,-1.025261 -0.020743,-0.0969 -0.030488,-0.195542 -0.030488,-0.286287 0,-0.111773 0.015071,-0.220556 0.040825,-0.325561 0.011441,-0.04551 0.025321,-0.08988 0.041341,-0.133327 0.00977,-0.02711 0.019008,-0.05436 0.030488,-0.08062 0.027374,-0.06139 0.059018,-0.120298 0.095086,-0.176215 0.0103,-0.01606 0.02154,-0.03148 0.032554,-0.04703 0.035502,-0.05007 0.074766,-0.0971 0.1167897,-0.141592 0.01161,-0.01203 0.021471,-0.02566 0.033589,-0.03721 0.041868,-0.04106 0.088823,-0.07646 0.1359085,-0.11162 0.047461,-0.03336 0.097981,-0.06346 0.1508972,-0.08992 0.00601,-0.004 0.00936,-0.0097 0.014986,-0.01395 0.1849437,-0.09894 0.3930597,-0.160197 0.6185667,-0.160197 z m -0.00362,0.22066 a 0.26460984,0.26460984 0 0 0 -0.2599346,0.269232 v 0.898655 l -0.4258125,0.24598 a 0.26460984,0.26460984 0 1 0 0.2656179,0.457335 L 5.8670794,7.0781198 A 0.26460984,0.26460984 0 0 0 5.999887,6.8497098 V 5.7986108 A 0.26460984,0.26460984 0 0 0 5.7306577,5.5293788 Z"/></g><text x="0" y="23.4666669" fill="#000000" font-size="5px" font-weight="bold" font-family="'Helvetica Neue', Helvetica, Arial-Unicode, Arial, Sans-serif">Created by Larea</text><text x="0" y="28.4666669" fill="#000000" font-size="5px" font-weight="bold" font-family="'Helvetica Neue', Helvetica, Arial-Unicode, Arial, Sans-serif">from the Noun Project</text></svg>