<svg xmlns="http://www.w3.org/2000/svg" xmlns:xlink="http://www.w3.org/1999/xlink" version="1.1" x="0px" y="0px" viewBox="0 0 70 87.5" style="enable-background:new 0 0 70 70;" xml:space="preserve"><g><g><path d="M52,3.022969C12.5764999,3.1449125,13.9221544,2.693325,13.2971802,3.312825    c-0.0014648,0.0014648-0.003418,0.0023193-0.0048828,0.0037842l-7.9984741,7.9984741    c-0.0013428,0.0013428-0.0021362,0.0030518-0.003418,0.0043335C5.1095514,11.5017385,5,11.812048,5,12.0229692v54.0000038    c0,0.5527344,0.4477539,1,1,1h46c0.5522461,0,1-0.4472656,1-1V4.0229688C53,3.4702346,52.5522461,3.022969,52,3.022969z     M13,6.4370313v4.585938H8.4140625L13,6.4370313z M7,65.0229721v-8.0029335h8c0.5522461,0,1-0.4472656,1-1s-0.4477539-1-1-1H7v-5    h8c0.5522461,0,1-0.4472656,1-1s-0.4477539-1-1-1H7v-5h5c0.5522461,0,1-0.4472656,1-1s-0.4477539-1-1-1H7v-5h4    c0.5522461,0,1-0.4472656,1-1s-0.4477539-1-1-1H7v-5h5c0.5522461,0,1-0.4472656,1-1s-0.4477539-1-1-1H7v-5h8    c0.5522461,0,1-0.4472656,1-1s-0.4477539-1-1-1H7v-6.9970694h7c0.5522461,0,1-0.4472656,1-1V5.0229688h36v14.9970703h-8    c-0.5522461,0-1,0.4472656-1,1s0.4477539,1,1,1h8v5h-5c-0.5522461,0-1,0.4472656-1,1s0.4477539,1,1,1h5v5h-4    c-0.5522461,0-1,0.4472656-1,1s0.4477539,1,1,1h4v5h-5c-0.5522461,0-1,0.4472656-1,1s0.4477539,1,1,1h5v5h-8    c-0.5522461,0-1,0.4472656-1,1s0.4477539,1,1,1h8v5h-8c-0.5522461,0-1,0.4472656-1,1s0.4477539,1,1,1h8v8.0029335H7z"/></g><g><path d="M42,33.0200386c0-0.5527344-0.4477539-1-1-1h-3.2583008c-0.1240234-0.3623047-0.2705078-0.7158203-0.4389648-1.0595703    l2.3037109-2.3037109c1.1646881-1.16469-1.2045059-2.2998447-2.828125-4.2431641    c-0.9949036-0.9949017-1.972168,0.6527901-3.7177734,2.3037109C32.7163086,26.5493355,32.3623047,26.4028511,32,26.2788277    v-3.2587891c0-0.5527344-0.4477539-1-1-1h-4c-1.5893459,0-0.8000126,2.3566246-1,4.2587891    c-0.3623047,0.1240234-0.7163086,0.2705078-1.0600586,0.4384766l-2.3037109-2.3037109    c-1.1642056-1.1642036-2.3896408,1.2939911-4.2426758,2.8291016c-1.1238365,1.1238384,1.1008873,2.2324467,2.3037109,3.7177734    c-0.1679688,0.34375-0.3144531,0.6972656-0.4389648,1.0595703H17c-1.6475048,0-0.7741184,2.4776039-1,5    c0,1.5876274,2.3492126,0.7994804,4.2583008,1c0.1240234,0.3623047,0.2709961,0.7167969,0.4389648,1.0605469    c-3.5520153,3.7550659-3.6093693,2.2156792,0.5249023,6.5458984c1.1238365,1.1238365,2.2324448-1.1008873,3.7177734-2.3037109    C25.2841797,43.4917183,25.6381836,43.6382027,26,43.7622261v3.2578125c0,1.6475868,2.4793243,0.7745171,5,1    c1.5904846,0,0.8004971-2.3606911,1-4.2578125c0.3618164-0.1240234,0.7158203-0.2705078,1.0605469-0.4394531l2.3037109,2.3037109    c1.164917,1.164917,2.3003464-1.2053299,4.2421875-2.828125c1.1238365-1.1238365-1.1008873-2.2324448-2.3037109-3.7177734    c0.168457-0.3447266,0.3154297-0.6982422,0.4394531-1.0605469H41c0.5522461,0,1-0.4472656,1-1V33.0200386z M40,36.0200386    c-2.1159363,0.1711349-3.6682701-0.4729424-3.9746094,0.7578125c-0.4616623,1.8518753-1.4672356,2.3845825-0.6645508,3.1884766    l2.1245117,2.125l-1.4140625,1.4140625c-1.6305885-1.3867035-2.2566109-2.9235802-3.3461914-2.2744141    c-0.6142578,0.3681641-1.2758789,0.6425781-1.9667969,0.8144531C30.3125,42.1567574,30,42.557148,30,43.0161324v3.0039063h-2    c-0.1716442-2.1219635,0.4722176-3.6673164-0.7583008-3.9746094c-1.8517208-0.4603157-2.3838501-1.4682007-3.1879883-0.6640625    l-2.1245117,2.1240234l-1.4145508-1.4140625l2.125-2.125c0.3251953-0.3251953,0.3867188-0.8291016,0.1494141-1.2226563    c-0.3666992-0.609375-0.6411133-1.2714844-0.8144531-1.9658203c-0.1113281-0.4453125-0.5112305-0.7578125-0.9702148-0.7578125H18    v-2h3.0043945c0.4589844,0,0.8588867-0.3125,0.9702148-0.7578125c0.1733398-0.6933594,0.4477539-1.3554688,0.8149414-1.9667969    c0.2363281-0.3935547,0.1743164-0.8974609-0.1503906-1.2216797l-2.1245117-2.1240234l1.4145508-1.4150391    c1.6201572,1.3782196,2.2603054,2.9281464,3.347168,2.2744141C26.9093628,27.8266926,28,28.1619453,28,27.0249214v-3.0048828h2    c0.1717014,2.1231995-0.4722176,3.6682949,0.7583008,3.9755859c1.8529663,0.4593277,2.3797722,1.4679089,3.1884766,0.6640625    l2.1245117-2.125l1.4140625,1.4150391l-2.1245117,2.1240234c-0.324707,0.3242188-0.3867188,0.828125-0.1503906,1.2216797    c0.3681641,0.6132813,0.6420898,1.2744141,0.8149414,1.9667969C36.3310318,34.490181,37.8762283,33.8482704,40,34.0200386    V36.0200386z"/></g><g><path d="M29,31.0200386c-2.2055664,0-4,1.7939453-4,4s1.7944336,4,4,4s4-1.7939453,4-4S31.2055664,31.0200386,29,31.0200386z     M29,37.0200386c-1.1030273,0-2-0.8974609-2-2s0.8969727-2,2-2s2,0.8974609,2,2S30.1030273,37.0200386,29,37.0200386z"/></g><g><path d="M61.8574219,10.5053911c-0.3613281-0.6015625-1.3535156-0.6015625-1.7148438,0l-3,5    C56.871788,15.956234,57.0521011,12.8662271,57,65.1684799c0,1.0205078,0.8310547,1.8515625,1.8520508,1.8515625h4.2963867    C64.1694336,67.0200424,65,66.1889877,65,65.1684799V16.0200386C65,15.5287113,64.9570084,15.7654457,61.8574219,10.5053911z     M59,29.0200386h4v30h-4V29.0200386z M61,12.9633989l2,3.3339834v10.7226563h-4V16.2973824L61,12.9633989z M63,65.0200424h-4    v-4.0000038h4V65.0200424z"/></g></g><text x="0" y="85" fill="#000000" font-size="5px" font-weight="bold" font-family="'Helvetica Neue', Helvetica, Arial-Unicode, Arial, Sans-serif">Created by rivercon</text><text x="0" y="90" fill="#000000" font-size="5px" font-weight="bold" font-family="'Helvetica Neue', Helvetica, Arial-Unicode, Arial, Sans-serif">from the Noun Project</text></svg>