<svg xmlns="http://www.w3.org/2000/svg" data-name="Layer 1" viewBox="0 0 512 640" x="0px" y="0px"><title>User Minimize</title><path d="M380.3,266.8a109.094,109.094,0,0,0-79.9,34.4,167.192,167.192,0,0,0-104.9-36.5h-.3c-45.8.1-88.3,17.9-119.8,50.3-32,32.7-49.5,77.4-49.4,125.9a10.327,10.327,0,0,0,2.9,7.1,9.9,9.9,0,0,0,7.1,2.9h0l262.5-.5c.6.7,1.2,1.3,1.8,2a110.029,110.029,0,1,0,80-185.6Zm-334,164c2.1-39.3,17.3-75.2,43.4-101.9,27.7-28.5,65.2-44.2,105.5-44.2h.3a147.6,147.6,0,0,1,92.6,32.2,110.247,110.247,0,0,0-3.8,113.5Zm334,36a90,90,0,1,1,0-180,90,90,0,0,1,0,180Z"/><path d="M195.3,240.9A105.7,105.7,0,1,0,89.6,135.2,105.8,105.8,0,0,0,195.3,240.9Zm0-191.4a85.7,85.7,0,1,1-85.7,85.7A85.8,85.8,0,0,1,195.3,49.5Z"/><path d="M420.8,366.8h-81a10,10,0,0,0,0,20h81a10,10,0,0,0,0-20Z"/></svg>