<svg xmlns="http://www.w3.org/2000/svg" viewBox="0 0 24 30" x="0px" y="0px"><title>document</title><g><path d="M20,7H15a1,1,0,0,1-1-1V1a1,1,0,0,1,.62-.92,1,1,0,0,1,1.09.21l5,5a1,1,0,0,1,.21,1.09A1,1,0,0,1,20,7ZM16,5h1.59L16,3.41Z"/><path d="M20,24H4a1,1,0,0,1-1-1V1A1,1,0,0,1,4,0H15a1,1,0,0,1,.71.29l5,5A1,1,0,0,1,21,6V23A1,1,0,0,1,20,24ZM5,22H19V6.41L14.59,2H5Z"/><path d="M16,10H8A1,1,0,0,1,8,8h8a1,1,0,0,1,0,2Z"/><path d="M16,14H8a1,1,0,0,1,0-2h8a1,1,0,0,1,0,2Z"/><path d="M16,18H8a1,1,0,0,1,0-2h8a1,1,0,0,1,0,2Z"/></g></svg>