<svg xmlns="http://www.w3.org/2000/svg" xmlns:xlink="http://www.w3.org/1999/xlink" version="1.1" x="0px" y="0px" viewBox="0 0 100 125" style="enable-background:new 0 0 100 100;" xml:space="preserve"><path d="M89,88H69.5703125v-6.9189453h10.2529297c0.5527344,0,1-0.4472656,1-1V11c0-0.5527344-0.4472656-1-1-1H20.1767578  c-0.5527344,0-1,0.4472656-1,1v69.0810547c0,0.5527344,0.4472656,1,1,1h10.2529297V88H11c-0.5527344,0-1,0.4472656-1,1  s0.4472656,1,1,1h78c0.5527344,0,1-0.4472656,1-1S89.5527344,88,89,88z M21.1767578,12h57.6464844v67.0810547H21.1767578V12z   M32.4296875,81.0810547h35.140625V88h-35.140625V81.0810547z"/><path d="M58.8339844,57.3388672l-0.4082031-7.7226562L63.3125,43.6054688  c0.2138672-0.2636719,0.2792969-0.6171875,0.1748047-0.9394531s-0.3652344-0.5703125-0.6933594-0.6572266l-7.5009766-2.0019531  l-4.2285156-6.4882812c-0.3691406-0.5664062-1.3066406-0.5664062-1.6757812,0l-4.2275391,6.4882812l-7.5019531,2.0019531  c-0.328125,0.0869141-0.5888672,0.3349609-0.6933594,0.6572266s-0.0390625,0.6757812,0.1748047,0.9394531l4.8867188,6.0107422  l-0.4072266,7.7226562c-0.0175781,0.3378906,0.1367188,0.6621094,0.4111328,0.8613281  c0.1728516,0.1259766,0.3798828,0.1914062,0.5878906,0.1914062c0.1201172,0,0.2412109-0.0214844,0.3574219-0.0664062l7.25-2.7734375  l7.2509766,2.7734375c0.3173828,0.1230469,0.671875,0.0742188,0.9462891-0.125  C58.6972656,58.0009766,58.8515625,57.6767578,58.8339844,57.3388672z M56.6308594,48.6533203  c-0.15625,0.1923828-0.2353516,0.4355469-0.2226562,0.6835938l0.3466797,6.5712891l-6.1708984-2.3603516  c-0.1152344-0.0439453-0.2363281-0.0664062-0.3574219-0.0664062s-0.2421875,0.0224609-0.3574219,0.0664062l-6.1708984,2.3603516  l0.3466797-6.5712891c0.0126953-0.2480469-0.0664062-0.4912109-0.2226562-0.6835938l-4.1552734-5.1103516l6.3798828-1.703125  c0.2382812-0.0634766,0.4453125-0.2128906,0.5800781-0.4199219l3.5996094-5.5244141l3.6005859,5.5244141  c0.1347656,0.2070312,0.3417969,0.3564453,0.5800781,0.4199219l6.3789062,1.703125L56.6308594,48.6533203z"/><path d="M41.5126953,63.9150391c-0.4628906-0.3017578-1.0820312-0.1728516-1.3837891,0.2900391l-3.4814453,5.3291016  c-0.3027344,0.4619141-0.1728516,1.0820312,0.2900391,1.3837891c0.1689453,0.1103516,0.3583984,0.1630859,0.5458984,0.1630859  c0.3261719,0,0.6464844-0.1591797,0.8378906-0.453125l3.4814453-5.3291016  C42.1054688,64.8369141,41.9755859,64.2167969,41.5126953,63.9150391z"/><path d="M50.2001953,64.8320312c-0.5527344,0-1,0.4472656-1,1v6.1533203c0,0.5527344,0.4472656,1,1,1s1-0.4472656,1-1v-6.1533203  C51.2001953,65.2792969,50.7529297,64.8320312,50.2001953,64.8320312z"/><path d="M60.2978516,64.2929688c-0.3007812-0.4628906-0.9208984-0.5927734-1.3837891-0.2900391  c-0.4628906,0.3017578-0.5927734,0.921875-0.2900391,1.3837891l3.4814453,5.328125  c0.1914062,0.2939453,0.5117188,0.453125,0.8378906,0.453125c0.1875,0,0.3769531-0.0527344,0.5458984-0.1630859  c0.4628906-0.3017578,0.5927734-0.921875,0.2900391-1.3837891L60.2978516,64.2929688z"/><path d="M63.4892578,20.1630859c-0.4628906-0.3017578-1.0820312-0.171875-1.3837891,0.2900391l-3.4814453,5.3291016  c-0.3027344,0.4619141-0.1728516,1.0820312,0.2900391,1.3837891c0.1689453,0.1103516,0.3583984,0.1630859,0.5458984,0.1630859  c0.3261719,0,0.6464844-0.1591797,0.8378906-0.453125l3.4814453-5.3291016  C64.0820312,21.0849609,63.9521484,20.4648438,63.4892578,20.1630859z"/><path d="M50.2265625,26.2490234c0.5527344,0,1-0.4472656,1-1v-6.1523438c0-0.5527344-0.4472656-1-1-1s-1,0.4472656-1,1v6.1523438  C49.2265625,25.8017578,49.6738281,26.2490234,50.2265625,26.2490234z"/><path d="M40.1289062,26.7880859c0.1914062,0.2939453,0.5117188,0.453125,0.8378906,0.453125  c0.1875,0,0.3769531-0.0527344,0.5458984-0.1630859c0.4628906-0.3017578,0.5927734-0.921875,0.2900391-1.3837891  l-3.4814453-5.328125c-0.3017578-0.4628906-0.9208984-0.5927734-1.3837891-0.2900391  c-0.4628906,0.3017578-0.5927734,0.921875-0.2900391,1.3837891L40.1289062,26.7880859z"/></svg>